<?xml version="1.0" encoding="utf-8"?>
<!-- Generator: Adobe Illustrator 21.0.0, SVG Export Plug-In . SVG Version: 6.00 Build 0)  -->
<svg version="1.1" id="Layer_1" xmlns="http://www.w3.org/2000/svg" xmlns:xlink="http://www.w3.org/1999/xlink" x="0px" y="0px"
	 viewBox="0 0 891.3 438" style="enable-background:new 0 0 891.3 438;" xml:space="preserve">
<style type="text/css">
	.st0{fill:#E2DED6;}
	.st1{fill:none;stroke:#FFFFFF;stroke-width:0.5;stroke-miterlimit:10;}
	.st2{clip-path:url(#SVGID_2_);fill:none;stroke:#4869AF;stroke-linecap:round;stroke-linejoin:round;stroke-miterlimit:10;}
	.st3{fill:none;stroke:#000000;stroke-width:0.5;stroke-miterlimit:10;}
	.st4{font-family:'Helvetica';}
	.st5{font-size:12px;}
	.st6{font-family:'Helvetica-Bold';}
	.st7{fill:none;stroke:#000000;stroke-width:2;stroke-miterlimit:10;}
</style>
<g>
	<rect x="41.3" y="5.3" class="st0" width="850" height="400"/>
	<path class="st1" d="M41.3,348.2h850 M41.3,291h850 M41.3,233.9h850 M41.3,176.7h850 M41.3,119.6h850 M41.3,62.4h850 M110,405.3
		V5.3 M195.3,405.3V5.3 M280.6,405.3V5.3 M365.9,405.3V5.3 M451.3,405.3V5.3 M536.3,405.3V5.3 M621.6,405.3V5.3 M706.9,405.3V5.3
		 M792.2,405.3V5.3 M877.6,405.3V5.3"/>
	<g>
		<defs>
			<rect id="SVGID_1_" x="41.3" y="5.3" width="850" height="400"/>
		</defs>
		<clipPath id="SVGID_2_">
			<use xlink:href="#SVGID_1_"  style="overflow:visible;"/>
		</clipPath>
		<polyline class="st2" points="41.3,370.7 41.6,372.4 42,371.1 42.3,369.6 42.6,371.9 42.9,371.5 43.3,373.1 43.6,374.7 
			43.9,372.2 44.2,371.4 44.6,372.5 44.9,372 45.2,371 45.6,371.1 45.9,373.4 46.2,372.8 46.5,372.4 46.9,372.2 47.2,371.8 
			47.5,372.8 47.8,371.6 48.2,371.1 48.5,370.9 48.8,371.6 49.1,371.1 49.5,372 49.8,373.6 50.1,375.1 50.5,369.5 50.8,370.6 
			51.1,370.1 51.4,365.4 51.8,368.2 52.1,368.7 52.4,370.2 52.7,364.3 53.1,369.6 53.4,370.8 53.7,370.1 54.1,371.1 54.4,369.5 
			54.7,371.1 55,371.7 55.4,373 55.7,370.9 56,371.6 56.3,374 56.7,373.5 57,371.1 57.3,373.3 57.6,374.6 58,377.4 58.3,373.4 
			58.6,371.6 59,376.7 59.3,375.2 59.6,374.6 59.9,373.8 60.3,374.9 60.6,375.8 60.9,376.3 61.2,375.9 61.6,375.1 61.9,374.9 
			62.2,375.1 62.6,375.8 62.9,374 63.2,375.7 63.5,375.7 63.9,375 64.2,374.3 64.5,374.9 64.8,374.8 65.2,374.8 65.5,375.1 
			65.8,374.7 66.1,373.9 66.5,372.6 66.8,365.3 67.1,371.4 67.5,369 67.8,373.8 68.1,377.1 68.4,376.7 68.8,377.2 69.1,376 
			69.4,375.4 69.7,375.8 70.1,375.7 70.4,375.8 70.7,376.2 71.1,376.6 71.4,375.2 71.7,376.7 72,375.9 72.4,378.6 72.7,376.2 
			73,377.6 73.3,374.3 73.7,378.4 74,379.5 74.3,376.5 74.6,375.2 75,377.2 75.3,379.6 75.6,379.5 76,377.3 76.3,379.1 76.6,380.8 
			76.9,379.2 77.3,379.5 77.6,380.6 77.9,380.4 78.2,379.6 78.6,379.1 78.9,379.2 79.2,378.8 79.6,379.9 79.9,377.1 80.2,379 
			80.5,377.5 80.9,378.3 81.2,377 81.5,378.1 81.8,378.2 82.2,378.1 82.5,378.8 82.8,377.2 83.1,378.2 83.5,377.6 83.8,378.2 
			84.1,377 84.5,378.8 84.8,377.8 85.1,376.7 85.4,376 85.8,375 86.1,375.8 86.4,376.3 86.7,377.6 87.1,376.5 87.4,377.3 
			87.7,377.2 88.1,376.8 88.4,378.3 88.7,377.2 89,376.8 89.4,378.4 89.7,377.2 90,373.1 90.3,376.3 90.7,378.7 91,376 91.3,374.9 
			91.6,374.2 92,368 92.3,371 92.6,374.6 93,366.4 93.3,368.6 93.6,372 93.9,370.8 94.3,363.1 94.6,369.8 94.9,371.9 95.2,370.9 
			95.6,370.4 95.9,369.3 96.2,369.4 96.6,368.4 96.9,371.5 97.2,371.4 97.5,371.5 97.9,373 98.2,372.5 98.5,371.5 98.8,371.2 
			99.2,370 99.5,373.5 99.8,369.4 100.1,370.7 100.5,370.1 100.8,368.2 101.1,369.8 101.5,370.6 101.8,370.7 102.1,368.7 102.4,367 
			102.8,365.6 103.1,367.4 103.4,366.1 103.7,365.3 104.1,365.3 104.4,364.5 104.7,363 105.1,363.5 105.4,362.9 105.7,358.1 
			106,360.8 106.4,358 106.7,358.9 107,354.9 107.3,354 107.7,346.1 108,351.1 108.3,345 108.6,347 109,345.8 109.3,343.9 
			109.6,353.2 110,342 110.3,339.6 110.6,341.9 110.9,341.4 111.3,343 111.6,344.7 111.9,343.1 112.2,342.9 112.6,342.3 
			112.9,344.6 113.2,342.4 113.6,341.9 113.9,343.9 114.2,345.9 114.5,344.6 114.9,346.7 115.2,347.6 115.5,347.4 115.8,346.6 
			116.2,349 116.5,351 116.8,344.8 117.1,348.5 117.5,348.5 117.8,352.8 118.1,357 118.5,354.3 118.8,354.4 119.1,353.4 
			119.4,353.4 119.8,352.8 120.1,354.6 120.4,353.1 120.7,354.3 121.1,354.2 121.4,353.2 121.7,355.8 122.1,354.4 122.4,356.6 
			122.7,356.3 123,359.1 123.4,356.6 123.7,358 124,357.9 124.3,361.2 124.7,359.5 125,361.1 125.3,362.7 125.6,363.2 126,363.6 
			126.3,360.6 126.6,363.9 127,359.4 127.3,363 127.6,363.8 127.9,364.3 128.3,365 128.6,366 128.9,365.6 129.2,365.4 129.6,365.5 
			129.9,364.2 130.2,363.2 130.6,363.5 130.9,361.9 131.2,362.7 131.5,364 131.9,363.4 132.2,361.3 132.5,360.2 132.8,361.6 
			133.2,360.3 133.5,359.4 133.8,361.6 134.1,358.8 134.5,359.7 134.8,361.1 135.1,360.3 135.5,362.8 135.8,358.9 136.1,360.3 
			136.4,361 136.8,362.1 137.1,361.6 137.4,359.6 137.7,360.3 138.1,357.2 138.4,361.5 138.7,359.2 139.1,357 139.4,358.7 
			139.7,358.3 140,359.2 140.4,358.6 140.7,358 141,360.7 141.3,361.5 141.7,358.7 142,362.2 142.3,359.4 142.6,360.2 143,363.6 
			143.3,367.2 143.6,361.9 144,357.8 144.3,363.2 144.6,357 144.9,357.1 145.3,340.7 145.6,350.8 145.9,359.7 146.2,363.9 
			146.6,364 146.9,364.7 147.2,363.1 147.6,364.6 147.9,365.3 148.2,362.3 148.5,364 148.9,362.4 149.2,362.4 149.5,361.4 
			149.8,361.8 150.2,362.4 150.5,361.8 150.8,363.8 151.1,364.4 151.5,364.3 151.8,363.6 152.1,365.3 152.5,364 152.8,363.5 
			153.1,363.6 153.4,363.6 153.8,362.1 154.1,364.3 154.4,363.4 154.7,363.6 155.1,362.6 155.4,364.3 155.7,363.9 156.1,361.9 
			156.4,365.5 156.7,363.6 157,364.4 157.4,362.4 157.7,365.4 158,363.5 158.3,367.1 158.7,364.2 159,364.8 159.3,363.4 
			159.6,363.7 160,364.3 160.3,366 160.6,363.7 161,365.8 161.3,366.1 161.6,365.1 161.9,363.8 162.3,364.2 162.6,362.7 
			162.9,356.3 163.2,362.9 163.6,364.7 163.9,364.3 164.2,365.6 164.6,367 164.9,367.2 165.2,365.9 165.5,370 165.9,368.8 
			166.2,368.3 166.5,367.1 166.8,368.5 167.2,367.1 167.5,369 167.8,369.9 168.1,367.5 168.5,368 168.8,367.6 169.1,365.5 
			169.5,364.6 169.8,365.1 170.1,365.4 170.4,365.8 170.8,363.6 171.1,364.8 171.4,366.1 171.7,367.2 172.1,369.5 172.4,366.8 
			172.7,368.5 173.1,368.4 173.4,369 173.7,366.1 174,369.2 174.4,366.7 174.7,369.2 175,369.1 175.3,370.6 175.7,366.2 176,364.3 
			176.3,362.2 176.6,366 177,365.6 177.3,365.1 177.6,364.4 178,364.3 178.3,360.5 178.6,366.8 178.9,366.2 179.3,365.5 
			179.6,364.3 179.9,363.4 180.2,364.2 180.6,364.7 180.9,363.8 181.2,364.3 181.6,365 181.9,364.2 182.2,352.2 182.5,353.1 
			182.9,361.5 183.2,364.5 183.5,365 183.8,366 184.2,365.8 184.5,365.4 184.8,366.9 185.1,363.6 185.5,365.2 185.8,362 
			186.1,363.1 186.5,363.2 186.8,363.2 187.1,360.2 187.4,361.2 187.8,358.2 188.1,361.2 188.4,361.1 188.7,360.7 189.1,360.8 
			189.4,362.1 189.7,361.4 190.1,361 190.4,360.7 190.7,358.2 191,360.4 191.4,358.9 191.7,359.8 192,360.2 192.3,358 192.7,356.2 
			193,358 193.3,357.8 193.6,357.9 194,358.3 194.3,351.5 194.6,356.4 195,360.3 195.3,359 195.6,354.3 195.9,358.2 196.3,359.1 
			196.6,356.7 196.9,357.9 197.2,356.4 197.6,358.6 197.9,357.5 198.2,355.9 198.6,355.6 198.9,351 199.2,352.3 199.5,343.1 
			199.9,342.7 200.2,341 200.5,339.9 200.8,336.6 201.2,331.9 201.5,333.6 201.8,332.5 202.1,335.6 202.5,337.6 202.8,336.8 
			203.1,333.6 203.5,339.1 203.8,344.4 204.1,340.5 204.4,341.5 204.8,340.3 205.1,344.4 205.4,345.3 205.7,346.8 206.1,347.9 
			206.4,346.9 206.7,349.1 207.1,352.2 207.4,352.4 207.7,352.5 208,354.2 208.4,356.7 208.7,357.5 209,357.4 209.3,358.8 
			209.7,356.5 210,359.8 210.3,358.2 210.6,357.8 211,358.1 211.3,358.2 211.6,359.7 212,358.4 212.3,357.4 212.6,357.2 212.9,360 
			213.3,357.4 213.6,357.3 213.9,357 214.2,355.2 214.6,355.7 214.9,358.6 215.2,358.7 215.6,359.5 215.9,358.2 216.2,357.6 
			216.5,360 216.9,360.5 217.2,355.5 217.5,358.1 217.8,357 218.2,358 218.5,357.9 218.8,357.6 219.1,356.4 219.5,356.7 
			219.8,355.6 220.1,354.6 220.5,352.7 220.8,356.6 221.1,356.2 221.4,358.8 221.8,350.9 222.1,354.1 222.4,354.8 222.7,355.7 
			223.1,353.8 223.4,351.2 223.7,353.4 224.1,351 224.4,349.2 224.7,349.4 225,349.2 225.4,349.6 225.7,350.1 226,346.6 
			226.3,346.6 226.7,346.2 227,352.3 227.3,342.2 227.6,341.5 228,342.3 228.3,343.7 228.6,341.8 229,348.7 229.3,343 229.6,349.4 
			229.9,340.8 230.3,338.7 230.6,341.8 230.9,347.4 231.2,343.1 231.6,345 231.9,341.8 232.2,343.7 232.6,341.6 232.9,339.7 
			233.2,339.2 233.5,338.4 233.9,337.1 234.2,338.1 234.5,339.5 234.8,338.6 235.2,338.4 235.5,338.3 235.8,338.1 236.1,335.5 
			236.5,335.1 236.8,337.8 237.1,338.8 237.5,336.7 237.8,339.9 238.1,340.5 238.4,344 238.8,336.2 239.1,336 239.4,332.5 
			239.7,333.5 240.1,331.4 240.4,330.9 240.7,332 241.1,327.6 241.4,328.6 241.7,325.9 242,330.9 242.4,330.3 242.7,334.1 
			243,332.5 243.3,338 243.7,336.8 244,339.4 244.3,335.4 244.6,341.6 245,344.4 245.3,346.3 245.6,349.4 246,344.3 246.3,347 
			246.6,350.6 246.9,350.6 247.3,347.8 247.6,348 247.9,349.8 248.2,349.6 248.6,350.3 248.9,348.7 249.2,351 249.6,351.6 
			249.9,350.3 250.2,349.2 250.5,348.6 250.9,346.4 251.2,349.5 251.5,349.3 251.8,348.8 252.2,352.3 252.5,352.7 252.8,353.4 
			253.1,352.8 253.5,354.8 253.8,355.7 254.1,354.8 254.5,357.1 254.8,358.2 255.1,360 255.4,360.2 255.8,357.9 256.1,357.9 
			256.4,353.1 256.7,354.4 257.1,356.6 257.4,358.3 257.7,359.2 258.1,359 258.4,357.8 258.7,358.1 259,358.9 259.4,360.3 
			259.7,360.3 260,359.1 260.3,360.2 260.7,360.7 261,361.1 261.3,359.8 261.6,363.6 262,363.2 262.3,363.9 262.6,362.2 263,362.8 
			263.3,364.6 263.6,365.2 263.9,367.2 264.3,363.7 264.6,366.2 264.9,366.7 265.2,367.1 265.6,366.1 265.9,365.6 266.2,365.8 
			266.6,365.4 266.9,365.8 267.2,366.3 267.5,361.8 267.9,364.5 268.2,363.7 268.5,362.4 268.8,363.6 269.2,363.2 269.5,364.8 
			269.8,364.8 270.1,364.7 270.5,363.1 270.8,364 271.1,363.9 271.5,364.2 271.8,363.5 272.1,364.2 272.4,364.5 272.8,364.3 
			273.1,361.6 273.4,361.9 273.7,359.5 274.1,360.2 274.4,361.3 274.7,359.4 275.1,360.4 275.4,360.2 275.7,359.4 276,359.2 
			276.4,358.4 276.7,355.1 277,356.7 277.3,357 277.7,360.4 278,361.5 278.3,356.3 278.6,359.5 279,361.5 279.3,361.2 279.6,362 
			280,362 280.3,363.1 280.6,361.1 280.9,364.3 281.3,363.2 281.6,361.2 281.9,359.5 282.2,360.7 282.6,360.7 282.9,362.6 
			283.2,361.3 283.6,361.2 283.9,362.7 284.2,361.2 284.5,359 284.9,358.3 285.2,360.6 285.5,361.2 285.8,360.7 286.2,360.3 
			286.5,360.6 286.8,360 287.1,360.4 287.5,359.2 287.8,360.7 288.1,361.2 288.5,360.7 288.8,360.2 289.1,361.2 289.4,363 
			289.8,363.9 290.1,358.8 290.4,359.4 290.7,359.7 291.1,359 291.4,358.6 291.7,356.6 292.1,358.7 292.4,359.5 292.7,359.7 
			293,359 293.4,359.6 293.7,359.6 294,357.5 294.3,359.8 294.7,359.9 295,359.9 295.3,361.6 295.6,360.4 296,359.7 296.3,361.6 
			296.6,363 297,360.7 297.3,363.9 297.6,359.9 297.9,363.7 298.3,366 298.6,363.7 298.9,363.5 299.2,364.4 299.6,360.7 
			299.9,362.4 300.2,363.5 300.6,361.6 300.9,361.1 301.2,360 301.5,361.8 301.9,361 302.2,361.5 302.5,360.6 302.8,360.5 
			303.2,360.2 303.5,361.4 303.8,361.2 304.1,362.7 304.5,362.4 304.8,363.1 305.1,363.4 305.5,362.9 305.8,362.9 306.1,364 
			306.4,364.8 306.8,363.9 307.1,357.8 307.4,357.8 307.7,358.8 308.1,359.9 308.4,359.5 308.7,359.6 309.1,360.3 309.4,359.7 
			309.7,360.8 310,360.6 310.4,361.1 310.7,361.3 311,363 311.3,363.7 311.7,365.4 312,363.2 312.3,363.1 312.6,363.5 313,363.8 
			313.3,362.4 313.6,365.3 314,365.9 314.3,368.4 314.6,365.5 314.9,366.3 315.3,365.8 315.6,363 315.9,363.2 316.2,366.7 
			316.6,366.3 316.9,365.5 317.2,366.8 317.6,367 317.9,367 318.2,368 318.5,367.6 318.9,366.7 319.2,365.4 319.5,367.8 
			319.8,367.6 320.2,369.3 320.5,366.3 320.8,366.1 321.1,368 321.5,367.8 321.8,369.2 322.1,368.8 322.5,368 322.8,368 
			323.1,369.1 323.4,369.9 323.8,368.3 324.1,365.5 324.4,367.9 324.7,368.8 325.1,369.6 325.4,368.5 325.7,369.2 326.1,371.4 
			326.4,370 326.7,369.1 327,370.9 327.4,370.1 327.7,370.9 328,370.9 328.3,372.3 328.7,371.4 329,370.2 329.3,369.1 329.6,370.3 
			330,368.8 330.3,369.1 330.6,368.4 331,369.2 331.3,369.3 331.6,368.2 331.9,364 332.3,367 332.6,366.2 332.9,369 333.2,369.8 
			333.6,367.9 333.9,368.8 334.2,370.2 334.6,370.6 334.9,370.2 335.2,370.6 335.5,370 335.9,369.5 336.2,369.4 336.5,369.6 
			336.8,369.5 337.2,370 337.5,369.4 337.8,368.8 338.1,369.5 338.5,369.9 338.8,370.4 339.1,369.8 339.5,370.2 339.8,370.4 
			340.1,370.7 340.4,369.3 340.8,364.8 341.1,367.5 341.4,369.2 341.7,369.6 342.1,369.2 342.4,369.3 342.7,370.3 343.1,370.4 
			343.4,370.3 343.7,370.9 344,371.9 344.4,371.9 344.7,371.8 345,372.6 345.3,371.7 345.7,372.7 346,372.8 346.3,371.7 
			346.6,371.1 347,371.2 347.3,372.7 347.6,371.8 348,372.6 348.3,370.6 348.6,371.1 348.9,373 349.3,373.1 349.6,371.6 
			349.9,372.4 350.2,368.5 350.6,370.4 350.9,371 351.2,368.2 351.6,368.2 351.9,368.8 352.2,368.8 352.5,368.4 352.9,369.4 
			353.2,370.2 353.5,370.6 353.8,369.8 354.2,368.7 354.5,367.4 354.8,368.6 355.1,368.2 355.5,368.2 355.8,367.4 356.1,366.8 
			356.5,366.7 356.8,365.4 357.1,366.3 357.4,365.4 357.8,367.4 358.1,366.8 358.4,366.7 358.7,366.3 359.1,367.9 359.4,367.4 
			359.7,367.7 360.1,366.9 360.4,367.1 360.7,367.1 361,365.6 361.4,358.8 361.7,365.9 362,365.6 362.3,364.8 362.7,367.2 
			363,366.9 363.3,366.9 363.6,366.2 364,366 364.3,366.7 364.6,364.7 365,361.8 365.3,364.4 365.6,364.7 365.9,363.1 366.3,362.4 
			366.6,365.9 366.9,363.2 367.2,363.4 367.6,365.5 367.9,365.3 368.2,365.2 368.6,365.4 368.9,365.4 369.2,367.5 369.5,365.8 
			369.9,363.4 370.2,364.5 370.5,364.2 370.8,363.8 371.2,364.8 371.5,364.7 371.8,365 372.1,364.3 372.5,363.2 372.8,364.3 
			373.1,364.3 373.5,363.9 373.8,363.7 374.1,363.9 374.4,363.4 374.8,363 375.1,363.1 375.4,363.1 375.7,361.8 376.1,360.4 
			376.4,360.3 376.7,360.5 377.1,360.7 377.4,360.2 377.7,360.8 378,359.1 378.4,359.1 378.7,357.1 379,355.6 379.3,355 
			379.7,356.2 380,354.1 380.3,354.2 380.6,352.5 381,353.8 381.3,354 381.6,354.2 382,351.1 382.3,353.4 382.6,357.9 382.9,355.4 
			383.3,354.4 383.6,352.5 383.9,350.1 384.2,350.4 384.6,351.1 384.9,348.3 385.2,349.5 385.6,348.3 385.9,348.4 386.2,347.1 
			386.5,348.3 386.9,353.6 387.2,350.8 387.5,350.7 387.8,352.5 388.2,353.8 388.5,354.3 388.8,354.1 389.1,354.7 389.5,355.9 
			389.8,354.9 390.1,356.3 390.5,357 390.8,357.5 391.1,357.1 391.4,357.3 391.8,358.7 392.1,357 392.4,355.2 392.7,355.4 
			393.1,355.8 393.4,356.7 393.7,356.7 394.1,356.8 394.4,357.5 394.7,357.4 395,355.4 395.4,356.8 395.7,356.7 396,357.4 
			396.3,357 396.7,354.2 397,353.5 397.3,355.1 397.6,354.6 398,354.6 398.3,351 398.6,351 399,355.5 399.3,354.9 399.6,355.9 
			399.9,355 400.3,354.7 400.6,354.9 400.9,355 401.2,354.4 401.6,354.3 401.9,355.5 402.2,354.6 402.6,357.2 402.9,355.4 
			403.2,355 403.5,357.3 403.9,358.2 404.2,358.1 404.5,356.8 404.8,356.8 405.2,356 405.5,357.6 405.8,358 406.1,358 406.5,358.3 
			406.8,357.8 407.1,357.3 407.5,357.4 407.8,357.3 408.1,358.8 408.4,358.7 408.8,360.5 409.1,340.8 409.4,357 409.7,358.9 
			410.1,359.5 410.4,359.8 410.7,358.7 411.1,357.8 411.4,357.8 411.7,356.5 412,358.6 412.4,359.8 412.7,362.6 413,361.3 
			413.3,363.4 413.7,363.6 414,362.6 414.3,362.2 414.6,364.5 415,366.3 415.3,365.3 415.6,364.3 416,367.1 416.3,369.5 
			416.6,366.3 416.9,364.8 417.3,365.1 417.6,366.3 417.9,366.4 418.2,368.8 418.6,368.6 418.9,365.2 419.2,363.9 419.6,364.8 
			419.9,365.8 420.2,366.7 420.5,363.5 420.9,363.6 421.2,365 421.5,365.2 421.8,365.3 422.2,366.1 422.5,366.6 422.8,365.9 
			423.1,366.2 423.5,365.4 423.8,366.1 424.1,366.1 424.5,365.9 424.8,366.4 425.1,367.1 425.4,369.4 425.8,367 426.1,357.9 
			426.4,364.6 426.7,365.8 427.1,366.6 427.4,366.2 427.7,366.8 428.1,367.1 428.4,367.2 428.7,365.8 429,366.1 429.4,367.2 
			429.7,364.7 430,364.3 430.3,364.8 430.7,365.5 431,365.3 431.3,366.3 431.6,366.9 432,366.8 432.3,366.8 432.6,367.1 433,367.5 
			433.3,372.2 433.6,366.3 433.9,366.1 434.3,364.7 434.6,365.2 434.9,358.9 435.2,364 435.6,364.8 435.9,365.1 436.2,367.9 
			436.6,365.5 436.9,366.3 437.2,367.4 437.5,368.5 437.9,366.2 438.2,365.4 438.5,364.8 438.8,367.5 439.2,366 439.5,362.9 
			439.8,364.2 440.1,364.5 440.5,365.5 440.8,365.9 441.1,366.7 441.5,366.9 441.8,366.3 442.1,367.1 442.4,366.3 442.8,364.3 
			443.1,365.9 443.4,367.4 443.7,366.7 444.1,367 444.4,367.5 444.7,366.3 445.1,366.6 445.4,367.5 445.7,368 446,368.2 
			446.4,367.6 446.7,366.3 447,367 447.3,367.6 447.7,367.5 448,367.8 448.3,367.7 448.6,368 449,367.7 449.3,368.3 449.6,367.7 
			450,367.6 450.3,369.4 450.6,368.8 450.9,366.7 451.3,365.6 451.6,368.2 451.9,368.3 452.2,368.3 452.6,365.5 452.9,366.1 
			453.2,366.9 453.6,366.6 453.9,365.6 454.2,366.1 454.5,367.4 454.9,367 455.2,365.6 455.5,364.7 455.8,365.4 456.2,363.6 
			456.5,363.7 456.8,363.5 457.1,362.2 457.5,362.6 457.8,363.9 458.1,363.4 458.5,362.1 458.8,364.4 459.1,364.7 459.4,362.8 
			459.8,360.8 460.1,360.7 460.4,365.2 460.7,365.2 461.1,365 461.4,363.9 461.7,364.3 462.1,364.7 462.4,362.9 462.7,362.3 
			463,365 463.4,364.7 463.7,362.6 464,363.1 464.3,363.5 464.7,362.2 465,361.9 465.3,363 465.6,362 466,362 466.3,362.7 
			466.6,365.8 467,362.7 467.3,362.6 467.6,364.3 467.9,364 468.3,367.2 468.6,357.9 468.9,361.1 469.2,362.6 469.6,361.1 
			469.9,361.5 470.2,363.6 470.6,363.2 470.9,364 471.2,361.4 471.5,356.6 471.9,360.4 472.2,363.1 472.5,364.5 472.8,363.2 
			473.2,366.1 473.5,366.7 473.8,365.1 474.1,365.9 474.5,366.1 474.8,366.4 475.1,365.2 475.5,366.2 475.8,366.3 476.1,366.8 
			476.4,366.2 476.8,365.6 477.1,367.4 477.4,367.9 477.7,368 478.1,367.5 478.4,366.9 478.7,366.8 479.1,367.7 479.4,367.2 
			479.7,366.7 480,365.1 480.4,365.5 480.7,367 481,367.1 481.3,367 481.7,365.1 482,367.1 482.3,367.9 482.6,366.2 483,365.6 
			483.3,367.4 483.6,364.7 484,365.1 484.3,365.3 484.6,364.5 484.9,365.6 485.3,368.3 485.6,365.9 485.9,366.4 486.2,367.2 
			486.6,369.3 486.9,369.5 487.2,368.5 487.6,368.6 487.9,369.1 488.2,368.8 488.5,369.3 488.9,368.2 489.2,368.2 489.5,367.6 
			489.8,369.2 490.2,366.8 490.5,366.2 490.8,369 491.1,368.5 491.5,369.2 491.8,368.6 492.1,367.7 492.5,367 492.8,369.2 
			493.1,368.5 493.4,365.8 493.8,367.8 494.1,370.9 494.4,370.3 494.7,368.7 495.1,367.7 495.4,366.1 495.7,367.9 496.1,367.4 
			496.4,369.5 496.7,369.4 497,369.1 497.4,369.1 497.7,369.8 498,370.4 498.3,369 498.7,370.3 499,369.5 499.3,370.1 499.6,368.2 
			500,370 500.3,369 500.6,369.1 501,368.4 501.3,369.9 501.6,370.7 501.9,369.6 502.3,367.5 502.6,366.3 502.9,370.2 503.2,369.3 
			503.6,369.8 503.9,368.6 504.2,367.9 504.6,369.1 504.9,370.1 505.2,368.8 505.5,368.6 505.9,369.6 506.2,369.6 506.5,370.6 
			506.8,369.1 507.2,369.8 507.5,370.6 507.8,370.3 508.1,369.3 508.5,370 508.8,368.5 509.1,370.3 509.5,368.6 509.8,365.4 
			510.1,362.3 510.4,363.9 510.8,368.7 511.1,369.3 511.4,367 511.7,367.9 512.1,369.2 512.4,370.1 512.7,370.8 513.1,369.9 
			513.4,369.5 513.7,370.6 514,370.4 514.4,371.7 514.7,370.8 515,369.2 515.3,369 515.7,370 516,370.1 516.3,369.2 516.6,367.1 
			517,370.6 517.3,369.9 517.6,368 518,370.4 518.3,371.4 518.6,366.9 518.9,367.5 519.3,365.9 519.6,366.6 519.9,369.8 
			520.2,370.4 520.6,372 520.9,369.6 521.2,370.8 521.6,370.9 521.9,371 522.2,370.1 522.5,370.4 522.9,371.2 523.2,369.9 
			523.5,368.8 523.8,369.4 524.2,372 524.5,371.5 524.8,369.9 525.1,370.9 525.5,371.2 525.8,370.7 526.1,370.7 526.5,372.2 
			526.8,371.9 527.1,372 527.4,372.5 527.8,372.4 528.1,370 528.4,370.3 528.7,371 529.1,371.6 529.4,371.9 529.7,372.6 
			530.1,372.2 530.4,372.2 530.7,373.2 531,373.2 531.4,370.3 531.7,370 532,372 532.3,372.5 532.7,373.3 533,372.7 533.3,373.1 
			533.6,373.2 534,373.8 534.3,372.4 534.6,372.5 535,374.2 535.3,372.5 535.6,374.7 535.9,372.6 536.3,371.2 536.6,372.3 
			536.9,372.8 537.2,372.7 537.6,369.6 537.9,371 538.2,373 538.6,373.3 538.9,372.6 539.2,374.4 539.5,374.3 539.9,374.2 
			540.2,374.9 540.5,374.7 540.8,375.7 541.2,374 541.5,372 541.8,371.8 542.1,373.8 542.5,373.3 542.8,373.3 543.1,372.2 
			543.5,372.8 543.8,371.7 544.1,371.5 544.4,373.2 544.8,371.8 545.1,370.7 545.4,371 545.7,371.2 546.1,370.3 546.4,369.3 
			546.7,369 547.1,369.6 547.4,370.9 547.7,370 548,369.8 548.4,372.4 548.7,371.9 549,370 549.3,371.1 549.7,371.6 550,370.9 
			550.3,367.5 550.6,369 551,367.4 551.3,364.6 551.6,366.7 552,368.6 552.3,364.8 552.6,363.7 552.9,365 553.3,366.8 553.6,369 
			553.9,366.1 554.2,363.9 554.6,362.3 554.9,363.6 555.2,364.4 555.6,361.2 555.9,361.4 556.2,360.4 556.5,360.4 556.9,362.1 
			557.2,361 557.5,359.8 557.8,361.5 558.2,359.6 558.5,358.9 558.8,361.8 559.1,360.7 559.5,359.4 559.8,359 560.1,358.9 
			560.5,358.3 560.8,360.3 561.1,361.8 561.4,360.3 561.8,359.5 562.1,359 562.4,359.8 562.7,361 563.1,359.5 563.4,360.3 
			563.7,359.4 564.1,360.2 564.4,359.4 564.7,358.7 565,360.2 565.4,353.5 565.7,346.2 566,350.9 566.3,350.2 566.7,350.2 
			567,350.1 567.3,355 567.6,356.4 568,356 568.3,349.2 568.6,352.2 569,360.4 569.3,360.8 569.6,357.8 569.9,357.2 570.3,359.9 
			570.6,357.5 570.9,359 571.2,358 571.6,359.1 571.9,359.9 572.2,359.9 572.6,359.8 572.9,360.5 573.2,359.7 573.5,360.5 
			573.9,357.9 574.2,350.6 574.5,354.4 574.8,354.8 575.2,357.8 575.5,358 575.8,358.6 576.1,358.1 576.5,358.3 576.8,359.2 
			577.1,362.1 577.5,361 577.8,360 578.1,361 578.4,361.2 578.8,360.6 579.1,361.4 579.4,362 579.7,360.7 580.1,361 580.4,360.8 
			580.7,359.7 581.1,359.8 581.4,360.3 581.7,357.8 582,358.2 582.4,359.5 582.7,358.6 583,359.1 583.3,359 583.7,358.2 584,358.6 
			584.3,359 584.6,359.6 585,360.8 585.3,360.7 585.6,362.2 586,356.7 586.3,356.3 586.6,360.3 586.9,358.6 587.3,360.4 
			587.6,362.1 587.9,359.4 588.2,358.8 588.6,358.1 588.9,360.7 589.2,357.3 589.6,357.2 589.9,355.5 590.2,356.8 590.5,356.2 
			590.9,358.3 591.2,355.5 591.5,357.6 591.8,355.7 592.2,353.9 592.5,354.6 592.8,356.4 593.1,357.6 593.5,356.7 593.8,357.4 
			594.1,356 594.5,356.3 594.8,357.2 595.1,358.7 595.4,356.3 595.8,355.8 596.1,358.2 596.4,359.2 596.7,359.8 597.1,359.5 
			597.4,359.1 597.7,359.8 598.1,360.6 598.4,358.8 598.7,357.1 599,360.3 599.4,362 599.7,361.1 600,361.2 600.3,362.3 
			600.7,361.1 601,362 601.3,363.8 601.6,362.9 602,363 602.3,364.8 602.6,364.5 603,363.4 603.3,363.8 603.6,364.8 603.9,365.4 
			604.3,364.6 604.6,364.8 604.9,363.9 605.2,365 605.6,362.3 605.9,361.9 606.2,364.6 606.6,364.3 606.9,365.5 607.2,366 
			607.5,366.7 607.9,365.8 608.2,366.4 608.5,367 608.8,364.7 609.2,363.7 609.5,366.6 609.8,368.3 610.1,367.7 610.5,365.4 
			610.8,366.2 611.1,366.8 611.5,364.7 611.8,366.6 612.1,364.8 612.4,365.5 612.8,368 613.1,365.9 613.4,364.7 613.7,365.5 
			614.1,366.3 614.4,366.9 614.7,367.4 615.1,366.1 615.4,365.1 615.7,368 616,367.5 616.4,366.3 616.7,365.2 617,367 617.3,366.7 
			617.7,367.9 618,366.7 618.3,367.4 618.6,367.6 619,366.8 619.3,369.5 619.6,367 620,366.1 620.3,369.2 620.6,368.5 620.9,368.7 
			621.3,364.6 621.6,363.1 621.9,367.4 622.2,367.7 622.6,367.5 622.9,370.2 623.2,370.1 623.6,369 623.9,369.4 624.2,367.2 
			624.5,368.3 624.9,367.7 625.2,366.2 625.5,367 625.8,368.4 626.2,370.2 626.5,369.1 626.8,367.1 627.1,367.9 627.5,368.6 
			627.8,368.7 628.1,366.4 628.5,366.7 628.8,367.2 629.1,368.6 629.4,369.8 629.8,367.9 630.1,366.7 630.4,368.4 630.7,369 
			631.1,369.2 631.4,369.8 631.7,368.8 632.1,369.3 632.4,369 632.7,368 633,357.1 633.4,356.8 633.7,364.3 634,361.4 634.3,361.5 
			634.7,365.5 635,368.3 635.3,368.5 635.6,368.2 636,370 636.3,368.3 636.6,369.8 637,368.6 637.3,367.9 637.6,369.6 637.9,368.7 
			638.3,370.8 638.6,368 638.9,372.7 639.2,372.2 639.6,373.1 639.9,372.3 640.2,371.2 640.6,373 640.9,371.8 641.2,370.8 
			641.5,370.2 641.9,370.7 642.2,371.6 642.5,372 642.8,371.1 643.2,371.1 643.5,370.1 643.8,368.6 644.1,365.6 644.5,367 
			644.8,368.8 645.1,367.6 645.5,370.2 645.8,371.2 646.1,370.1 646.4,370 646.8,369.2 647.1,366.1 647.4,369 647.7,370.3 
			648.1,369.8 648.4,369 648.7,369.9 649.1,369.3 649.4,369.4 649.7,369.3 650,369.4 650.4,368.3 650.7,368.8 651,370 651.3,369.2 
			651.7,370.4 652,369.5 652.3,367.8 652.6,368.8 653,369.8 653.3,368 653.6,365.4 654,367.9 654.3,369.8 654.6,369 654.9,368.4 
			655.3,366.3 655.6,367.6 655.9,371.5 656.2,367 656.6,370.1 656.9,369.9 657.2,366.7 657.6,368.6 657.9,368.5 658.2,368.7 
			658.5,370.1 658.9,370 659.2,370.7 659.5,370.2 659.8,367.4 660.2,367.9 660.5,368.6 660.8,370.9 661.1,371 661.5,371.4 
			661.8,369.9 662.1,369.9 662.5,369.5 662.8,369.5 663.1,368.7 663.4,369.5 663.8,369.1 664.1,368.6 664.4,369.1 664.7,369.9 
			665.1,370.4 665.4,369.4 665.7,369.2 666.1,368.6 666.4,367.7 666.7,369.4 667,368.6 667.4,369.5 667.7,370.8 668,369.1 
			668.3,369.2 668.7,367 669,367.1 669.3,367.8 669.6,367.9 670,367.2 670.3,367.4 670.6,365.1 671,366 671.3,367.4 671.6,365.3 
			671.9,364.7 672.3,364.2 672.6,365.8 672.9,368.5 673.2,368.6 673.6,363.5 673.9,365.3 674.2,366 674.6,366.6 674.9,364.8 
			675.2,365.9 675.5,365.5 675.9,363.1 676.2,363.2 676.5,361.1 676.8,364.8 677.2,363.6 677.5,365.4 677.8,363 678.1,363 
			678.5,363.5 678.8,363.4 679.1,363.1 679.5,363.9 679.8,361.6 680.1,362.1 680.4,361.8 680.8,360.5 681.1,362.9 681.4,361.3 
			681.7,359.4 682.1,355.7 682.4,354.1 682.7,356.2 683.1,356.8 683.4,357.2 683.7,354.8 684,354.9 684.4,354 684.7,350.1 
			685,350.1 685.3,350.2 685.7,352.6 686,350.7 686.3,350.4 686.6,349.3 687,346.8 687.3,344 687.6,344.5 688,344.8 688.3,340.2 
			688.6,340.6 688.9,338.2 689.3,344.4 689.6,347.8 689.9,342.3 690.2,337.8 690.6,338.3 690.9,333.4 691.2,332.5 691.6,333.1 
			691.9,330.4 692.2,330.8 692.5,329.9 692.9,330.9 693.2,329.8 693.5,329.3 693.8,330.7 694.2,336.8 694.5,332.3 694.8,334.4 
			695.1,336.5 695.5,333.9 695.8,334.4 696.1,336 696.5,335.9 696.8,337.2 697.1,337.3 697.4,335.8 697.8,337.4 698.1,339.8 
			698.4,342.9 698.7,341.3 699.1,338.2 699.4,341.9 699.7,341.9 700.1,341.1 700.4,341.3 700.7,340.8 701,341.5 701.4,343.4 
			701.7,344 702,342 702.3,344.4 702.7,346.9 703,344.6 703.3,344.7 703.6,345.6 704,346.8 704.3,347.4 704.6,350.2 705,351 
			705.3,348.5 705.6,348.4 705.9,350.6 706.3,351.8 706.6,353.2 706.9,351.7 707.2,347.4 707.6,351.5 707.9,348.6 708.2,352 
			708.6,349.4 708.9,348.2 709.2,349.5 709.5,351.4 709.9,350.7 710.2,351.4 710.5,352.8 710.8,350.6 711.2,350.6 711.5,351.7 
			711.8,354 712.1,353.8 712.5,353.8 712.8,351.1 713.1,352.4 713.5,353 713.8,352.8 714.1,351.9 714.4,353.6 714.8,352.3 
			715.1,353.4 715.4,355.1 715.7,352.5 716.1,352.2 716.4,350.9 716.7,350.1 717.1,349.8 717.4,352.3 717.7,351.9 718,353.6 
			718.4,354.6 718.7,352.8 719,352.8 719.3,354.3 719.7,352.8 720,354.6 720.3,355.9 720.6,353.5 721,355.7 721.3,355.9 
			721.6,358.8 722,355.9 722.3,356.4 722.6,356.7 722.9,356.8 723.3,359.1 723.6,358.1 723.9,355.7 724.2,357.2 724.6,354.3 
			724.9,357.3 725.2,359.4 725.6,356.7 725.9,360.3 726.2,361.3 726.5,358 726.9,359.1 727.2,358.8 727.5,359.7 727.8,360.2 
			728.2,357.8 728.5,359.4 728.8,357.1 729.1,351.8 729.5,355.6 729.8,358 730.1,357 730.5,357.5 730.8,357 731.1,358.1 
			731.4,357.8 731.8,357.2 732.1,357.5 732.4,358.7 732.7,357.3 733.1,358.3 733.4,358.9 733.7,359 734.1,358.6 734.4,357.9 
			734.7,358.6 735,358 735.4,356.3 735.7,357.1 736,358.9 736.3,359 736.7,358.4 737,360.2 737.3,359.2 737.6,359.7 738,360.5 
			738.3,361.5 738.6,361.3 739,359.9 739.3,361.1 739.6,363.2 739.9,363.2 740.3,361.2 740.6,362.3 740.9,360.6 741.2,363.4 
			741.6,361.8 741.9,362.8 742.2,363.2 742.6,364 742.9,364.3 743.2,363.6 743.5,362.4 743.9,363.1 744.2,363.2 744.5,363.8 
			744.8,364.4 745.2,361.1 745.5,361.8 745.8,361.1 746.1,362.8 746.5,362.7 746.8,363.1 747.1,362.9 747.5,361.8 747.8,362.2 
			748.1,361.5 748.4,361.4 748.8,361.9 749.1,362.8 749.4,364.2 749.7,360.7 750.1,363.2 750.4,362.8 750.7,362.9 751.1,363.1 
			751.4,362.3 751.7,362.2 752,362.9 752.4,360.4 752.7,360.5 753,362.2 753.3,362.3 753.7,365.3 754,361.2 754.3,362.6 
			754.6,363.7 755,363.6 755.3,354.3 755.6,358.9 756,361 756.3,362.4 756.6,366.4 756.9,364.6 757.3,363.9 757.6,363.9 
			757.9,363.8 758.2,366 758.6,366.6 758.9,363.5 759.2,364 759.6,365.6 759.9,363.9 760.2,366.2 760.5,366.4 760.9,366.1 
			761.2,366.1 761.5,364.4 761.8,362.4 762.2,364.3 762.5,364.6 762.8,366.1 763.1,367.5 763.5,367 763.8,364.2 764.1,366.1 
			764.5,365 764.8,365.8 765.1,366.8 765.4,365 765.8,365.6 766.1,366.4 766.4,365.2 766.7,366 767.1,364.7 767.4,367.1 
			767.7,366.6 768.1,367.9 768.4,366.4 768.7,366.9 769,368.2 769.4,371 769.7,368.4 770,369.4 770.3,368.8 770.7,363.2 771,363.2 
			771.3,365.2 771.6,365.6 772,366.2 772.3,366.4 772.6,367.5 773,369.2 773.3,369.6 773.6,364.8 773.9,363.7 774.3,367.1 
			774.6,367.4 774.9,368.5 775.2,369 775.6,367.9 775.9,366.4 776.2,367.5 776.6,366.8 776.9,367.4 777.2,366.3 777.5,368.8 
			777.9,368.5 778.2,368.6 778.5,369.5 778.8,367.6 779.2,369.8 779.5,370.1 779.8,367.9 780.1,365.9 780.5,368.2 780.8,370.7 
			781.1,368.3 781.5,370.4 781.8,369.6 782.1,369.1 782.4,369.4 782.8,369.3 783.1,370.1 783.4,370.8 783.7,370.1 784.1,371.7 
			784.4,370.7 784.7,371.6 785.1,370 785.4,370.7 785.7,371 786,370.7 786.4,370.2 786.7,372.4 787,371.6 787.3,372.2 787.7,371.8 
			788,373.2 788.3,372.2 788.6,372 789,373.3 789.3,372 789.6,371.8 790,370.7 790.3,372 790.6,372 790.9,372.6 791.3,373.8 
			791.6,372.7 791.9,371.7 792.2,370.6 792.6,371.2 792.9,375.5 793.2,373.2 793.6,371.2 793.9,372.7 794.2,370.4 794.5,369.1 
			794.9,371.8 795.2,372.2 795.5,372.8 795.8,374.6 796.2,373.1 796.5,371.2 796.8,371.6 797.1,374.6 797.5,374.8 797.8,374.3 
			798.1,373.8 798.5,373.2 798.8,373.9 799.1,373.5 799.4,374.6 799.8,374.1 800.1,373.9 800.4,371.9 800.7,372.7 801.1,375 
			801.4,374.6 801.7,374.4 802.1,374 802.4,373.4 802.7,374 803,373.4 803.4,374.1 803.7,375.1 804,374.6 804.3,374.2 804.7,374.8 
			805,375 805.3,375.1 805.6,375.1 806,373.9 806.3,373.8 806.6,374.2 807,375.5 807.3,375 807.6,373.3 807.9,374.7 808.3,375.6 
			808.6,373.8 808.9,374.1 809.2,372.8 809.6,372.2 809.9,374.6 810.2,373.2 810.6,375 810.9,375.2 811.2,374.2 811.5,374.6 
			811.9,375.9 812.2,375.2 812.5,375.1 812.8,374.1 813.2,374.2 813.5,375.2 813.8,376.2 814.1,375.7 814.5,373.6 814.8,372.2 
			815.1,373.4 815.5,374.7 815.8,375.1 816.1,375 816.4,374.1 816.8,375.5 817.1,375.4 817.4,376 817.7,375.9 818.1,375.6 
			818.4,375.1 818.7,374.9 819.1,374.9 819.4,375 819.7,375 820,375.4 820.4,375.9 820.7,376.4 821,376.5 821.3,377.1 821.7,377.2 
			822,376.6 822.3,375.1 822.6,375.9 823,375 823.3,376.6 823.6,378.8 824,377 824.3,375.6 824.6,376.5 824.9,376.6 825.3,375.4 
			825.6,376.3 825.9,378.3 826.2,377.4 826.6,377.2 826.9,376 827.2,377.8 827.6,378.3 827.9,377.6 828.2,377.1 828.5,378.8 
			828.9,377.2 829.2,377.4 829.5,376.2 829.8,376 830.2,378.3 830.5,378.2 830.8,377.4 831.1,376.6 831.5,377.8 831.8,378.2 
			832.1,378.2 832.5,378.6 832.8,376.6 833.1,377.4 833.4,378.1 833.8,377.5 834.1,378.2 834.4,377 834.7,377 835.1,377.8 
			835.4,377.3 835.7,377.6 836.1,377.2 836.4,378.3 836.7,377.8 837,378 837.4,371.1 837.7,373.9 838,375.6 838.3,375.4 
			838.7,376.2 839,377.2 839.3,378.8 839.6,378.3 840,378.4 840.3,377.9 840.6,377.2 841,378.1 841.3,378.2 841.6,378.4 
			841.9,379.5 842.3,377.6 842.6,377.6 842.9,377.5 843.2,376.6 843.6,379.1 843.9,378.2 844.2,380 844.6,380 844.9,379.7 
			845.2,380.2 845.5,380.7 845.9,379.5 846.2,379.8 846.5,379.7 846.8,380.2 847.2,378.2 847.5,378.6 847.8,378.4 848.1,381.6 
			848.5,381.1 848.8,381.3 849.1,379.7 849.5,379 849.8,380 850.1,380 850.4,380.4 850.8,380.2 851.1,380.2 851.4,379.2 
			851.7,380.7 852.1,381.1 852.4,380.2 852.7,380.4 853.1,380.4 853.4,381 853.7,380.6 854,380.8 854.4,381.3 854.7,381.2 855,381 
			855.3,381.1 855.7,380.5 856,381 856.3,381 856.6,380.3 857,380.5 857.3,380.5 857.6,380.4 858,379.9 858.3,378.8 858.6,378.8 
			858.9,382.1 859.3,380.6 859.6,380.3 859.9,379.2 860.2,380.2 860.6,380.6 860.9,381.4 861.2,378.3 861.6,379 861.9,379.2 
			862.2,380.4 862.5,379.7 862.9,380.2 863.2,379.7 863.5,380.3 863.8,380.7 864.2,381.2 864.5,382.1 864.8,382.1 865.1,379.5 
			865.5,379 865.8,379.6 866.1,380.5 866.5,381 866.8,380.4 867.1,380.2 867.4,380.2 867.8,380.3 868.1,379.7 868.4,379.9 
			868.7,381.2 869.1,380.5 869.4,381.2 869.7,380.6 870.1,380.8 870.4,380.4 870.7,380.7 871,380.7 871.4,380.3 871.7,381.5 
			872,381.2 872.3,380.7 872.7,380.4 873,381.1 873.3,380.4 873.6,381 874,380.5 874.3,381.1 874.6,379.9 875,379.8 875.3,381.2 
			875.6,381.8 875.9,378.2 876.3,379.1 876.6,380.4 876.9,380.2 877.2,381.1 877.6,381.6 877.9,380.2 878.2,381.1 878.6,382.3 
			878.9,382 879.2,380.7 879.5,380.2 879.9,380.5 880.2,381.2 880.5,373.1 880.8,30.1 		"/>
	</g>
	<path class="st3" d="M41.3,5.3v400h850 M110,405.3v3 M195.3,405.3v3 M280.6,405.3v3 M365.9,405.3v3 M451.3,405.3v3 M536.3,405.3v3
		 M621.6,405.3v3 M706.9,405.3v3 M792.2,405.3v3 M877.6,405.3v3 M41.3,405.3h-3 M41.3,348.2h-3 M41.3,291h-3 M41.3,233.9h-3
		 M41.3,176.7h-3 M41.3,119.6h-3 M41.3,62.4h-3 M41.3,5.6h-3"/>
	<text transform="matrix(1 0 0 1 96.6084 419.8037)" class="st4 st5">1975</text>
	<text transform="matrix(1 0 0 1 181.9365 419.8037)" class="st4 st5">1980</text>
	<text transform="matrix(1 0 0 1 267.2646 419.8037)" class="st4 st5">1985</text>
	<text transform="matrix(1 0 0 1 352.5928 419.8037)" class="st4 st5">1990</text>
	<text transform="matrix(1 0 0 1 437.9209 419.8037)" class="st4 st5">1995</text>
	<text transform="matrix(1 0 0 1 522.9209 419.8037)" class="st4 st5">2000</text>
	<text transform="matrix(1 0 0 1 608.249 419.8037)" class="st4 st5">2005</text>
	<text transform="matrix(1 0 0 1 693.5771 419.8037)" class="st4 st5">2010</text>
	<text transform="matrix(1 0 0 1 778.8975 419.8037)" class="st4 st5">2015</text>
	<text transform="matrix(1 0 0 1 864.2256 419.8037)" class="st4 st5">2020</text>
	<text transform="matrix(1 0 0 1 30.2334 410.3037)" class="st4 st5">0</text>
	<text transform="matrix(1 0 0 1 20.2256 353.1631)" class="st4 st5">0.5</text>
	<text transform="matrix(1 0 0 1 20.2256 296.0146)" class="st4 st5">1.0</text>
	<text transform="matrix(1 0 0 1 20.2256 238.874)" class="st4 st5">1.5</text>
	<text transform="matrix(1 0 0 1 20.2256 181.7256)" class="st4 st5">2.0</text>
	<text transform="matrix(1 0 0 1 20.2256 124.585)" class="st4 st5">2.5</text>
	<text transform="matrix(1 0 0 1 20.2256 67.4521)" class="st4 st5">3.0</text>
	<text transform="matrix(1 0 0 1 20.2256 10.3037)" class="st4 st5">3.5</text>
	<text transform="matrix(1 0 0 1 454.6318 433.3037)" class="st4 st5">year</text>
	<text transform="matrix(1 0 0 1 709.6318 62.3037)" class="st6 st5">21 Mar 2020: 3,283,000</text>
	<text transform="matrix(1 0 0 1 544.8049 311.9705)" class="st6 st5">28 Mar 2009: 665,000</text>
	<text transform="matrix(1 0 0 1 102.1799 307.9705)" class="st6 st5">2 Oct 1982: 695,000</text>
	<text transform="matrix(1 0 0 1 79.6318 37.3037)" class="st6 st5">new claims for unemployment compensation</text>
	<text transform="matrix(0 -1 1 0 11.3037 280.6475)" class="st4 st5">weekly new claims (millions)</text>
</g>
<g>
	<g>
		<line class="st7" x1="841" y1="55" x2="868.9" y2="37.6"/>
		<g>
			<polygon points="877.6,32.2 868.5,44.8 868.3,38 862.3,34.8 			"/>
		</g>
	</g>
</g>
<g>
	<g>
		<line class="st7" x1="666.3" y1="309.7" x2="683.9" y2="322.3"/>
		<g>
			<polygon points="692.2,328.2 677.1,324.6 683.3,321.9 683.9,315.1 			"/>
		</g>
	</g>
</g>
<g>
	<g>
		<line class="st7" x1="215" y1="306.2" x2="232.6" y2="318.7"/>
		<g>
			<polygon points="240.9,324.6 225.8,321.1 232,318.3 232.6,311.5 			"/>
		</g>
	</g>
</g>
</svg>
